<svg width="50" height="50" viewBox="0 0 50 50" fill="none" xmlns="http://www.w3.org/2000/svg">
<path d="M22.0956 1.85032C23.8607 0.0612403 26.6161 -0.543811 29.0477 0.538797C30.1413 1.0257 31.0244 1.79004 31.6522 2.71165C33.9975 1.78207 36.7734 2.34707 38.5604 4.33177C39.3615 5.22154 39.8569 6.2792 40.0555 7.37669C42.5764 7.48097 44.8834 9.12566 45.7089 11.6658C46.0788 12.8042 46.1005 13.9722 45.8358 15.0554C48.0964 16.176 49.5349 18.6168 49.2557 21.2732C49.1305 22.4643 48.6751 23.5404 47.9921 24.4226C49.6011 26.3657 49.923 29.1799 48.5878 31.4929C47.9889 32.5301 47.135 33.3281 46.1522 33.8562C46.832 36.2859 45.981 38.9874 43.8202 40.5574C42.8518 41.2609 41.7485 41.6423 40.6366 41.7253C40.2694 44.2216 38.3927 46.3437 35.7801 46.8991C34.6086 47.1482 33.4445 47.0477 32.3944 46.6706C31.0436 48.8019 28.4662 49.9779 25.8534 49.4226C24.6819 49.1735 23.6593 48.6082 22.8534 47.8366C20.7526 49.2339 17.9204 49.2601 15.7596 47.6902C14.7909 46.9863 14.0864 46.0545 13.6639 45.0222C11.1766 45.4439 8.57935 44.3146 7.24401 42.0017C6.64523 40.9645 6.37985 39.8268 6.41393 38.7116C3.9702 38.0852 2.05637 35.9976 1.77721 33.3415C1.65206 32.1503 1.87247 31.0027 2.35729 29.9978C0.379919 28.4316 -0.519464 25.7465 0.305529 23.2068C0.675399 22.0684 1.34343 21.1101 2.1942 20.3894C1.02435 18.1541 1.29575 15.3341 3.08287 13.3493C3.88405 12.4596 4.88418 11.8559 5.95494 11.5437C5.79567 9.02612 7.1902 6.56064 9.62975 5.47434C10.7145 4.99139 11.8639 4.84488 12.9608 4.98899C13.8338 2.60779 16.1218 0.908981 18.8055 0.908914C20.0137 0.908914 21.141 1.25439 22.0956 1.85032Z" fill="url(#paint0_radial_566_1235)"/>
<defs>
<radialGradient id="paint0_radial_566_1235" cx="0" cy="0" r="1" gradientUnits="userSpaceOnUse" gradientTransform="translate(24.7103 24.7798) rotate(90) scale(38.1462 38.0393)">
<stop stop-color="#F7B235"/>
<stop offset="0.478259" stop-color="#F7B235"/>
<stop offset="1" stop-color="#E35061"/>
</radialGradient>
</defs>
</svg>
