<svg width="4" height="2" viewBox="0 0 4 2" fill="none" xmlns="http://www.w3.org/2000/svg">
<path d="M0 0C0.261355 0.0228055 0.789557 0.200632 0.807617 0.727539C0.807564 0.731882 0.803171 0.735496 0.801758 0.740234C1.08191 0.594819 1.40039 0.512701 1.7373 0.512695C2.18292 0.512717 2.59555 0.656768 2.93066 0.900391C3.04232 0.981596 3.06753 1.13834 2.98633 1.25C2.90507 1.36144 2.7483 1.38582 2.63672 1.30469C2.38419 1.1211 2.07378 1.01272 1.7373 1.0127C1.40086 1.0127 1.09041 1.12115 0.837891 1.30469C0.726336 1.38576 0.569539 1.36137 0.488281 1.25C0.430228 1.17017 0.426496 1.06725 0.469727 0.985352C0.485046 0.833553 0.521884 0.170606 0 0Z" fill="#68462A"/>
</svg>
