<svg width="4" height="2" viewBox="0 0 4 2" fill="none" xmlns="http://www.w3.org/2000/svg">
<path d="M3.03418 0C2.77282 0.0228055 2.24462 0.200632 2.22656 0.727539C2.22662 0.731882 2.23101 0.735496 2.23242 0.740234C1.95227 0.594819 1.63379 0.512701 1.29688 0.512695C0.851258 0.512717 0.438626 0.656768 0.103516 0.900391C-0.00814408 0.981596 -0.033349 1.13834 0.0478516 1.25C0.129107 1.36144 0.285882 1.38582 0.397461 1.30469C0.649992 1.1211 0.960399 1.01272 1.29688 1.0127C1.63332 1.0127 1.94377 1.12115 2.19629 1.30469C2.30784 1.38576 2.46464 1.36137 2.5459 1.25C2.60395 1.17017 2.60768 1.06725 2.56445 0.985352C2.54913 0.833553 2.5123 0.170606 3.03418 0Z" fill="#68462A"/>
</svg>
