<svg width="50" height="50" viewBox="0 0 50 50" fill="none" xmlns="http://www.w3.org/2000/svg">
<path d="M22.1844 1.76522C22.2854 1.82385 22.4135 1.8088 22.4982 1.72848C24.2891 0.0315996 26.9988 -0.519715 29.3906 0.541992C30.4307 1.00372 31.2828 1.71513 31.9092 2.57312C31.9781 2.66748 32.1015 2.70527 32.2114 2.66579C34.5439 1.82823 37.2552 2.41861 39.0166 4.36914C39.7794 5.21394 40.2681 6.20895 40.4905 7.2462C40.515 7.36052 40.6124 7.44534 40.729 7.45398C43.1984 7.63693 45.436 9.27414 46.249 11.7686C46.6011 12.8488 46.6409 13.9557 46.4207 14.993C46.3964 15.1076 46.451 15.225 46.5543 15.2803C48.7357 16.4488 50.1127 18.8522 49.8379 21.4609C49.7188 22.5906 49.3038 23.6178 48.6793 24.4762C48.6103 24.5711 48.6125 24.7007 48.6845 24.7934C50.2022 26.746 50.4779 29.5002 49.1621 31.7725C48.5923 32.7564 47.7941 33.5267 46.8736 34.0578C46.7721 34.1164 46.7213 34.2355 46.7493 34.3494C47.3395 36.7499 46.4659 39.376 44.3389 40.917C43.4169 41.5849 42.3728 41.9658 41.3145 42.0778C41.1982 42.0901 41.1036 42.1781 41.0827 42.2931C40.6412 44.7257 38.7703 46.7712 36.2031 47.3154C35.0893 47.5515 33.9797 47.4752 32.9664 47.1475C32.8553 47.1115 32.7332 47.1534 32.6674 47.2499C31.2721 49.2946 28.7274 50.4055 26.1592 49.8613C25.0458 49.6254 24.0634 49.1062 23.2716 48.3964C23.1846 48.3184 23.0561 48.3071 22.9568 48.3685C20.8491 49.6712 18.0731 49.6547 15.9453 48.1133C15.0232 47.4452 14.3377 46.5728 13.9039 45.6036C13.8562 45.4969 13.7433 45.4343 13.6275 45.45C11.1732 45.7838 8.6447 44.6467 7.3291 42.375C6.75912 41.3907 6.48824 40.3157 6.48722 39.2549C6.48711 39.1379 6.40939 39.0345 6.297 39.0018C3.92017 38.3107 2.07184 36.246 1.79688 33.6377C1.67771 32.5072 1.86957 31.4153 2.30201 30.4457C2.34978 30.3386 2.32079 30.2123 2.23115 30.1366C0.341044 28.5413 -0.504336 25.9058 0.308594 23.4111C0.660463 22.3316 1.27954 21.4132 2.06836 20.7032C2.15554 20.6247 2.18038 20.4975 2.12923 20.392C1.05102 18.1668 1.3572 15.4168 3.11816 13.4668C3.88106 12.6221 4.82261 12.0333 5.83398 11.7044C5.9453 11.6682 6.01962 11.5624 6.01604 11.4454C5.94054 8.97498 7.34409 6.58754 9.74316 5.52246C10.7746 5.06456 11.8652 4.90675 12.9158 5.01125C13.032 5.02282 13.1425 4.95604 13.1864 4.84774C14.1206 2.54275 16.3897 0.916048 19.0273 0.916016C20.1766 0.916016 21.2552 1.22591 22.1844 1.76522Z" fill="#FAC666"/>
</svg>
