<svg width="3" height="1" viewBox="0 0 3 1" fill="none" xmlns="http://www.w3.org/2000/svg">
<path d="M2.55371 0.708207C2.68083 0.762015 2.82799 0.702484 2.88184 0.575395C2.93564 0.448274 2.87611 0.30112 2.74902 0.24727H2.74805L2.74609 0.246293C2.74451 0.245635 2.74187 0.244428 2.73926 0.243364C2.73404 0.241242 2.7269 0.238125 2.71777 0.234575C2.69936 0.227411 2.67281 0.217899 2.63965 0.206254C2.57345 0.183016 2.47914 0.152611 2.36328 0.12227C2.13222 0.0617762 1.80993 0.000255261 1.45117 0.000199616C1.09212 0.000199616 0.773269 0.0617041 0.543945 0.12227C0.428808 0.152687 0.334483 0.183383 0.268555 0.206254C0.236088 0.217522 0.210176 0.226489 0.193359 0.232621C0.184664 0.235792 0.180077 0.237668 0.177734 0.238481C0.178635 0.238186 0.180476 0.238133 0.182617 0.237504C0.184342 0.236998 0.188589 0.235922 0.194336 0.234575C0.0831249 0.259927 0 0.358848 0 0.477739C0 0.61581 0.111929 0.727739 0.25 0.727739C0.279348 0.727739 0.302359 0.722617 0.305664 0.721879C0.313532 0.720122 0.319815 0.718001 0.323242 0.716996C0.330187 0.714957 0.336329 0.712346 0.339844 0.711137C0.347266 0.708583 0.35639 0.705217 0.364258 0.702348C0.381467 0.696073 0.40404 0.687849 0.432617 0.677934C0.489584 0.658172 0.570916 0.632096 0.670898 0.605668C0.872212 0.552486 1.14724 0.5002 1.45117 0.5002C1.75511 0.500256 2.03305 0.552456 2.23633 0.605668C2.33752 0.632161 2.41936 0.658536 2.47461 0.677934C2.50201 0.68756 2.52261 0.696112 2.53613 0.701371C2.54289 0.703999 2.54781 0.706024 2.55078 0.707231C2.55213 0.707778 2.55318 0.707989 2.55371 0.708207Z" fill="#4F3731"/>
</svg>
