<svg width="4" height="1" viewBox="0 0 4 1" fill="none" xmlns="http://www.w3.org/2000/svg">
<path d="M1.9218 0.0167037C2.21632 0.0487828 2.43726 0.175632 2.61418 0.259868C2.79305 0.345022 2.97665 0.417094 3.26458 0.417094C3.40242 0.417358 3.51458 0.529186 3.51458 0.667094C3.51456 0.80499 3.40241 0.916831 3.26458 0.917094C2.87465 0.917094 2.61453 0.814441 2.39934 0.712016C2.18209 0.60858 2.0565 0.534296 1.86809 0.513774C1.22793 0.444054 0.683313 0.649891 0.402271 0.865337C0.29278 0.949307 0.135749 0.928815 0.0516848 0.819438C-0.0322865 0.709946 -0.0117968 0.552915 0.0975832 0.468852C0.482064 0.173987 1.15558 -0.0666312 1.9218 0.0167037Z" fill="#68462A"/>
</svg>
