<svg width="50" height="50" viewBox="0 0 50 50" fill="none" xmlns="http://www.w3.org/2000/svg">
<path d="M22.3555 1.86816C24.1428 0.0624872 26.9343 -0.548329 29.3906 0.541992C30.496 1.03269 31.3889 1.80539 32.0244 2.73633C34.3977 1.79752 37.2079 2.36625 39.0166 4.36914C39.8274 5.26707 40.3285 6.33471 40.5293 7.44238C43.0771 7.54949 45.4141 9.20705 46.249 11.7686C46.6233 12.917 46.6446 14.0954 46.376 15.1885C48.6602 16.3192 50.1201 18.7818 49.8379 21.4609C49.7113 22.6619 49.2502 23.7471 48.5586 24.6367C50.1861 26.5967 50.5134 29.4387 49.1621 31.7725C48.5564 32.8184 47.6927 33.6228 46.6982 34.1553C47.3858 36.6072 46.5234 39.3343 44.3389 40.917C43.3591 41.6268 42.2414 42.0124 41.1152 42.0957C40.7415 44.6144 38.8394 46.7565 36.2031 47.3154C35.0196 47.5663 33.8409 47.4644 32.7773 47.083C31.4089 49.2337 28.7964 50.4201 26.1592 49.8613C24.9761 49.6106 23.9409 49.0401 23.125 48.2607C20.9986 49.671 18.1303 49.6961 15.9453 48.1133C14.9653 47.4033 14.2525 46.4624 13.8252 45.4199C11.3099 45.8441 8.68004 44.7077 7.3291 42.375C6.72322 41.3287 6.4553 40.18 6.49023 39.0547C4.02091 38.4216 2.07925 36.3163 1.79688 33.6377C1.67019 32.4359 1.89502 31.2777 2.38672 30.2637C0.387963 28.6839 -0.526312 25.9732 0.308594 23.4111C0.682671 22.2635 1.35874 21.2979 2.21973 20.5713C1.03553 18.3161 1.30959 15.4696 3.11816 13.4668C3.92899 12.569 4.94162 11.9604 6.02539 11.6455C5.86553 9.10478 7.27936 6.61628 9.74316 5.52246C10.8398 5.03564 12.0032 4.88802 13.1143 5.03418C13.9995 2.63095 16.3191 0.916049 19.0273 0.916016C20.2478 0.916016 21.3887 1.26552 22.3555 1.86816Z" fill="url(#paint0_radial_347_2875)"/>
<defs>
<radialGradient id="paint0_radial_347_2875" cx="0" cy="0" r="1" gradientTransform="matrix(-25.0023 -0.350468 0.350507 -24.8603 25.0023 25.9686)" gradientUnits="userSpaceOnUse">
<stop stop-color="#D4A856"/>
<stop offset="1" stop-color="#FAC666"/>
</radialGradient>
</defs>
</svg>
