<svg width="50" height="50" viewBox="0 0 50 50" fill="none" xmlns="http://www.w3.org/2000/svg">
<path d="M22.0958 1.85106C23.8609 0.0618517 26.6163 -0.54403 29.0479 0.538558C30.1412 1.02532 31.0236 1.79014 31.6515 2.71141C33.9968 1.7815 36.7735 2.34667 38.5606 4.33153C39.3617 5.22122 39.8571 6.27903 40.0558 7.37645C42.5767 7.48076 44.8837 9.12622 45.7091 11.6665C46.079 12.8051 46.1009 13.9728 45.836 15.0561C48.0965 16.1768 49.5351 18.6176 49.256 21.2739C49.1307 22.4648 48.6751 23.5403 47.9923 24.4223C49.6016 26.3656 49.9235 29.1805 48.588 31.4936C47.9892 32.5307 47.1351 33.3279 46.1524 33.8559C46.8324 36.2858 45.9814 38.988 43.8204 40.5581C42.8518 41.2617 41.748 41.6432 40.6358 41.7261C40.2684 44.2221 38.3928 46.3445 35.7804 46.8999C34.6086 47.1489 33.4439 47.0486 32.3936 46.6714C31.0428 48.8022 28.4661 49.9776 25.8536 49.4223C24.6823 49.1733 23.6595 48.6088 22.8536 47.8374C20.7529 49.2345 17.9206 49.2607 15.7599 47.6909C14.7909 46.9869 14.0856 46.0547 13.6632 45.022C11.1761 45.4433 8.57846 44.3151 7.24326 42.0024C6.64457 40.9654 6.38016 39.8274 6.41415 38.7124C3.97039 38.086 2.05668 35.9983 1.77744 33.3423C1.65226 32.1513 1.87193 31.0034 2.35654 29.9985C0.379272 28.4322 -0.519445 25.7462 0.305756 23.2065C0.675673 22.0681 1.34352 21.1099 2.19443 20.3891C1.02481 18.154 1.29616 15.3348 3.0831 13.3501C3.88435 12.4602 4.88428 11.8557 5.95517 11.5434C5.79611 9.02609 7.19065 6.56132 9.62998 5.47508C10.7147 4.99213 11.8641 4.84463 12.961 4.98875C13.8342 2.60778 16.1222 0.909679 18.8058 0.909652C20.0141 0.909652 21.1412 1.25502 22.0958 1.85106Z" fill="url(#paint0_radial_529_438)"/>
<defs>
<radialGradient id="paint0_radial_529_438" cx="0" cy="0" r="1" gradientUnits="userSpaceOnUse" gradientTransform="translate(24.7105 24.7797) rotate(90) scale(38.146 38.0396)">
<stop stop-color="#F7B235"/>
<stop offset="0.478259" stop-color="#F7B235"/>
<stop offset="1" stop-color="#E35061"/>
</radialGradient>
</defs>
</svg>
