<svg width="33" height="33" viewBox="0 0 33 33" fill="none" xmlns="http://www.w3.org/2000/svg">
<g filter="url(#filter0_n_57_2810)">
<path d="M13.1827 2.47178C14.1589 1.24053 15.8307 0.678236 17.4152 1.18663C18.1278 1.41531 18.7285 1.83042 19.1811 2.36074C20.5759 1.62434 22.3394 1.78803 23.5844 2.90074C24.1425 3.39962 24.5221 4.02342 24.7197 4.69218C26.2937 4.58646 27.8393 5.45289 28.5242 6.97594C28.8311 7.65849 28.9238 8.38295 28.8325 9.0741C30.3134 9.61778 31.3726 11.0376 31.3788 12.7075C31.3816 13.4564 31.1711 14.1564 30.8062 14.7509C31.9378 15.8499 32.3284 17.5771 31.655 19.1051C31.3529 19.7903 30.876 20.3445 30.3008 20.7393C30.8875 22.2035 30.5414 23.9399 29.3047 25.0618C28.7504 25.5646 28.0902 25.8765 27.4047 26.0033C27.3453 27.5797 26.3225 29.0258 24.7363 29.5478C24.0249 29.7818 23.294 29.7982 22.6158 29.6349C21.9203 31.051 20.3977 31.9563 18.7361 31.7878C17.9912 31.7123 17.3174 31.4302 16.7643 31.0052C15.5531 32.0158 13.7944 32.2237 12.3451 31.3941C11.6954 31.0221 11.1942 30.4906 10.8618 29.8775C9.34432 30.3078 7.65375 29.7813 6.66728 28.434C6.22493 27.8298 5.98246 27.1408 5.9282 26.4453C4.36697 26.2211 3.036 25.053 2.68281 23.421C2.52443 22.6891 2.58398 21.9605 2.81735 21.3031C1.48234 20.4633 0.741548 18.8548 1.08263 17.2203C1.23557 16.4878 1.5859 15.8469 2.06598 15.3414C1.18789 14.0312 1.16592 12.2602 2.14238 10.9057C2.58015 10.2986 3.16082 9.8556 3.80517 9.58908C3.53587 8.03502 4.23605 6.40817 5.67887 5.5679C6.32045 5.19433 7.02515 5.02539 7.71672 5.04076C8.09828 3.50166 9.40547 2.29079 11.0736 2.10915C11.8246 2.02741 12.549 2.16587 13.1827 2.47178Z" fill="white"/>
<path d="M12.9123 1.29852C14.163 0.144441 15.9827 -0.32279 17.7209 0.234911C18.3592 0.439771 18.926 0.765608 19.406 1.17727C21.0225 0.622642 22.8847 0.933642 24.2512 2.1549C24.7511 2.60176 25.1349 3.13098 25.4058 3.70214C27.1086 3.85236 28.6846 4.89392 29.4366 6.56606C29.7115 7.17769 29.8465 7.81731 29.8616 8.4491C31.356 9.27887 32.3718 10.8703 32.3787 12.7037C32.3811 13.3753 32.2443 14.0156 32.0005 14.5995C32.9908 15.916 33.2881 17.6974 32.6456 19.327L32.5701 19.5081C32.2992 20.1226 31.9134 20.652 31.453 21.0864C31.836 22.7517 31.3345 24.5704 29.977 25.8021C29.4799 26.253 28.9128 26.5799 28.3163 26.7894C28.0006 28.4065 26.8752 29.8194 25.2343 30.4323L25.0489 30.4977C24.4109 30.7076 23.7594 30.7758 23.1285 30.7243C22.1471 32.1233 20.4593 32.9679 18.6354 32.7831C17.9673 32.7153 17.3444 32.5126 16.7891 32.209C15.3238 33.0873 13.4396 33.1726 11.8488 32.2623C11.2662 31.9287 10.7787 31.4905 10.3947 30.9874C8.69873 31.1934 6.94345 30.5032 5.86089 29.025C5.46448 28.4835 5.19641 27.8856 5.04998 27.2694C3.41692 26.7679 2.09287 25.4236 1.70521 23.6324C1.56328 22.9763 1.56247 22.3212 1.67948 21.699C0.39169 20.5766 -0.270389 18.8097 0.103975 17.0158C0.241086 16.3592 0.506048 15.7608 0.865576 15.2404C0.145563 13.691 0.259752 11.8077 1.33122 10.3213C1.72353 9.77714 2.20914 9.33805 2.7493 9.00876C2.72155 7.3004 3.59215 5.62561 5.17567 4.7034L5.48102 4.53952C5.9645 4.30174 6.47224 4.15272 6.98355 4.08424C7.64991 2.5003 9.13378 1.31509 10.965 1.11555C11.6405 1.04203 12.2996 1.11245 12.9123 1.29852ZM17.4152 1.18663C15.8307 0.678236 14.1589 1.24053 13.1827 2.47178C12.549 2.16587 11.8246 2.02741 11.0736 2.10915C9.40547 2.29079 8.09828 3.50166 7.71672 5.04076L7.4573 5.0435C6.85034 5.0706 6.24027 5.24107 5.67887 5.5679L5.4175 5.73407C4.15243 6.61081 3.55267 8.13199 3.80517 9.58908C3.16082 9.8556 2.58015 10.2986 2.14238 10.9057L1.9711 11.1642C1.17206 12.4796 1.24274 14.113 2.06598 15.3414C1.5859 15.8469 1.23557 16.4878 1.08263 17.2203L1.03082 17.5259C0.835917 19.0525 1.56581 20.5157 2.81735 21.3031C2.58398 21.9605 2.52443 22.6891 2.68281 23.421C3.036 25.053 4.36697 26.2211 5.9282 26.4453C5.98246 27.1408 6.22493 27.8298 6.66728 28.434C7.65375 29.7813 9.34432 30.3078 10.8618 29.8775C11.1942 30.4906 11.6954 31.0221 12.3451 31.3941C13.7944 32.2237 15.5531 32.0158 16.7643 31.0052C17.3174 31.4302 17.9912 31.7123 18.7361 31.7878C20.3977 31.9563 21.9203 31.051 22.6158 29.6349C23.294 29.7982 24.0249 29.7818 24.7363 29.5478C26.3225 29.0258 27.3453 27.5797 27.4047 26.0033C28.0045 25.8924 28.5847 25.6395 29.0918 25.2413L29.3047 25.0618C30.5414 23.9399 30.8875 22.2035 30.3008 20.7393C30.876 20.3445 31.3529 19.7903 31.655 19.1051C32.3284 17.5771 31.9378 15.8499 30.8062 14.7509C31.1254 14.2308 31.3266 13.6299 31.3701 12.9863L31.3788 12.7075C31.3726 11.0376 30.3134 9.61778 28.8325 9.0741C28.9124 8.4693 28.8512 7.83892 28.6291 7.23351L28.5242 6.97594C27.8393 5.45289 26.2937 4.58646 24.7197 4.69218C24.5468 4.10707 24.2347 3.55632 23.7855 3.0936L23.5844 2.90074C22.3394 1.78803 20.5759 1.62434 19.1811 2.36074L19.0049 2.16691C18.6382 1.79172 18.1905 1.48651 17.6776 1.2809L17.4152 1.18663Z" fill="#9E765A" fill-opacity="0.5"/>
</g>
<defs>
<filter id="filter0_n_57_2810" x="0" y="0" width="32.9857" height="32.9074" filterUnits="userSpaceOnUse" color-interpolation-filters="sRGB">
<feFlood flood-opacity="0" result="BackgroundImageFix"/>
<feBlend mode="normal" in="SourceGraphic" in2="BackgroundImageFix" result="shape"/>
<feTurbulence type="fractalNoise" baseFrequency="2 2" stitchTiles="stitch" numOctaves="3" result="noise" seed="4413" />
<feColorMatrix in="noise" type="luminanceToAlpha" result="alphaNoise" />
<feComponentTransfer in="alphaNoise" result="coloredNoise1">
<feFuncA type="discrete" tableValues="0 0 0 0 0 0 0 0 0 1 1 1 1 1 1 1 1 1 1 1 1 1 1 1 1 1 1 1 1 1 1 1 1 1 1 1 1 1 1 1 0 0 0 0 0 0 0 0 0 0 0 0 0 0 0 0 0 0 0 0 0 0 0 0 0 0 0 0 0 0 0 0 0 0 0 0 0 0 0 0 0 0 0 0 0 0 0 0 0 0 0 0 0 0 0 0 0 0 0 0 "/>
</feComponentTransfer>
<feComposite operator="in" in2="shape" in="coloredNoise1" result="noise1Clipped" />
<feFlood flood-color="rgba(255, 255, 255, 0.65)" result="color1Flood" />
<feComposite operator="in" in2="noise1Clipped" in="color1Flood" result="color1" />
<feMerge result="effect1_noise_57_2810">
<feMergeNode in="shape" />
<feMergeNode in="color1" />
</feMerge>
</filter>
</defs>
</svg>
