<svg width="639" height="607" viewBox="0 0 639 607" fill="none" xmlns="http://www.w3.org/2000/svg">
<path d="M524.195 402.592C451.176 399.743 395.515 409.114 376.876 414.14L376.542 414.231L376.202 414.301C359.549 417.824 338.273 427.058 313.185 440.614C288.284 454.07 260.525 471.28 231.042 490.107C226.854 492.781 222.563 495.248 218.205 497.531H452.044C510.221 497.531 522.361 486.283 523.466 428.122L524.195 402.592ZM393.443 197.424V110.836C393.443 110.251 393.402 109.811 393.356 109.492C393.258 109.484 393.149 109.473 393.028 109.47C392.417 109.455 391.816 109.532 391.374 109.626L283.411 144.835L283.319 144.864L283.227 144.892C229.913 161.381 218.07 211.322 218.998 234.527L219.009 234.778V377.302C219.044 383.41 218.828 389.29 218.384 394.948C262.05 311.36 316.152 255.49 390.647 237.897C404.253 233.239 435.644 226.327 474.742 226.59C494.534 226.724 509.008 243.258 509.008 261.883V336.537C509.008 343.501 503.363 349.146 496.399 349.146C489.435 349.146 483.79 343.501 483.79 336.537V261.883C483.79 255.936 479.35 251.841 474.573 251.808C437.475 251.558 408.596 258.307 398.345 261.919L397.69 262.149L397.014 262.306C327.602 278.465 275.615 333.336 231.513 425.021C219.418 450.167 204.074 469.264 187.716 483.6C197.984 479.705 208.066 474.857 217.469 468.852C247.01 449.988 275.429 432.352 301.196 418.429C326.64 404.68 350.403 394.045 370.658 389.7C393.484 383.614 456.858 373.403 537.868 377.999L539.43 378.088C545.375 378.425 549.972 383.432 549.802 389.384L548.674 428.843C547.179 500.645 523.868 522.749 452.044 522.749H123.141C115.563 522.749 111.199 522.749 107.424 522.745C97.3109 522.734 89.2584 514.284 89.6955 504.181L89.7614 502.657C89.8856 499.786 92.239 497.553 95.1121 497.531H95.117C112.288 497.395 133.475 491.287 155.099 473.501C175.902 456.391 193.525 427.607 193.791 379.674V235.225C192.739 205.911 207.314 142.081 275.593 120.858L384.065 85.4869L384.425 85.3703L384.791 85.2735C389.441 84.0604 397.194 83.3143 404.533 86.6838C408.473 88.4923 412.232 91.4866 414.905 95.9698C417.535 100.382 418.661 105.473 418.661 110.836V197.424C418.661 204.387 413.016 210.033 406.052 210.033C399.088 210.033 393.443 204.387 393.443 197.424Z" fill="#5E0624"/>
</svg>
