<svg xmlns="http://www.w3.org/2000/svg" viewBox="0 0 545 517" fill="none" role="img" aria-label="Unfold">
  <path fill="#430F24" fill-rule="evenodd" d="M352.0 48.0 L342.0 48.0 L226.0 85.0 L203.0 99.0 L182.0 121.0 L171.0 141.0 L164.0 167.0 L164.0 335.0 L160.0 363.0 L155.0 379.0 L140.0 408.0 L119.0 431.0 L100.0 444.0 L85.0 451.0 L67.0 456.0 L51.0 457.0 L48.0 460.0 L48.0 465.0 L50.0 467.0 L450.0 468.0 L471.0 462.0 L487.0 448.0 L492.0 440.0 L496.0 428.0 L496.0 335.0 L494.0 333.0 L391.0 333.0 L352.0 338.0 L319.0 346.0 L289.0 357.0 L258.0 372.0 L191.0 414.0 L153.0 435.0 L120.0 448.0 L116.0 447.0 L130.0 437.0 L146.0 421.0 L157.0 407.0 L172.0 384.0 L210.0 315.0 L224.0 294.0 L245.0 268.0 L262.0 251.0 L282.0 235.0 L306.0 220.0 L330.0 209.0 L351.0 202.0 L379.0 196.0 L410.0 193.0 L441.0 193.0 L443.0 195.0 L443.0 311.0 L446.0 314.0 L452.0 313.0 L454.0 309.0 L453.0 185.0 L451.0 183.0 L399.0 183.0 L380.0 185.0 L347.0 192.0 L314.0 204.0 L283.0 221.0 L264.0 235.0 L232.0 266.0 L214.0 289.0 L193.0 322.0 L174.0 358.0 L172.0 358.0 L175.0 337.0 L175.0 168.0 L177.0 157.0 L185.0 137.0 L196.0 121.0 L208.0 109.0 L228.0 96.0 L345.0 58.0 L347.0 60.0 L346.0 166.0 L351.0 171.0 L355.0 170.0 L357.0 168.0 L357.0 53.0 Z M485.0 344.0 L485.0 427.0 L484.0 428.0 L484.0 430.0 L482.0 433.0 L482.0 435.0 L481.0 436.0 L481.0 437.0 L476.0 443.0 L476.0 444.0 L466.0 452.0 L465.0 452.0 L460.0 455.0 L458.0 455.0 L457.0 456.0 L453.0 456.0 L452.0 457.0 L131.0 457.0 L130.0 456.0 L131.0 455.0 L133.0 455.0 L136.0 453.0 L138.0 453.0 L139.0 452.0 L141.0 452.0 L144.0 450.0 L146.0 450.0 L151.0 447.0 L153.0 447.0 L154.0 446.0 L155.0 446.0 L156.0 445.0 L157.0 445.0 L158.0 444.0 L159.0 444.0 L160.0 443.0 L161.0 443.0 L162.0 442.0 L163.0 442.0 L164.0 441.0 L165.0 441.0 L166.0 440.0 L167.0 440.0 L168.0 439.0 L169.0 439.0 L170.0 438.0 L177.0 435.0 L179.0 433.0 L184.0 431.0 L186.0 429.0 L191.0 427.0 L196.0 423.0 L197.0 423.0 L201.0 420.0 L204.0 419.0 L206.0 417.0 L207.0 417.0 L209.0 415.0 L210.0 415.0 L218.0 409.0 L221.0 408.0 L223.0 406.0 L224.0 406.0 L229.0 402.0 L232.0 401.0 L237.0 397.0 L240.0 396.0 L245.0 392.0 L246.0 392.0 L250.0 389.0 L255.0 387.0 L257.0 385.0 L264.0 382.0 L266.0 380.0 L267.0 380.0 L268.0 379.0 L269.0 379.0 L270.0 378.0 L271.0 378.0 L272.0 377.0 L273.0 377.0 L284.0 371.0 L286.0 371.0 L293.0 367.0 L295.0 367.0 L298.0 365.0 L300.0 365.0 L303.0 363.0 L308.0 362.0 L311.0 360.0 L313.0 360.0 L314.0 359.0 L316.0 359.0 L317.0 358.0 L319.0 358.0 L320.0 357.0 L323.0 357.0 L324.0 356.0 L326.0 356.0 L327.0 355.0 L330.0 355.0 L331.0 354.0 L334.0 354.0 L335.0 353.0 L338.0 353.0 L339.0 352.0 L342.0 352.0 L343.0 351.0 L346.0 351.0 L347.0 350.0 L351.0 350.0 L352.0 349.0 L356.0 349.0 L357.0 348.0 L362.0 348.0 L363.0 347.0 L368.0 347.0 L369.0 346.0 L375.0 346.0 L376.0 345.0 L385.0 345.0 L386.0 344.0 L400.0 344.0 L401.0 343.0 L484.0 343.0 Z"/>
</svg>
