<svg width="370" height="370" viewBox="0 0 370 370" fill="none" xmlns="http://www.w3.org/2000/svg">
<rect width="370" height="370" rx="185" fill="#FBF7F9"/>
<path d="M184.7 246.02C177.38 246.02 170.84 245.24 165.08 243.68C159.44 242.24 154.52 240.14 150.32 237.38C146.12 234.5 142.58 231.08 139.7 227.12C136.94 223.04 134.84 218.48 133.4 213.44C132.08 208.4 131.42 202.88 131.42 196.88V124.7H157.52V195.98C157.52 202.1 158.48 207.2 160.4 211.28C162.44 215.24 165.44 218.18 169.4 220.1C173.36 222.02 178.4 222.98 184.52 222.98C190.76 222.98 195.86 222.02 199.82 220.1C203.9 218.18 206.9 215.24 208.82 211.28C210.86 207.2 211.88 202.1 211.88 195.98V124.7H237.62V196.88C237.62 212.48 233.18 224.6 224.3 233.24C215.54 241.76 202.34 246.02 184.7 246.02Z" fill="#5E0624"/>
</svg>
