<svg xmlns="http://www.w3.org/2000/svg" viewBox="0 0 575 575" fill="none">
  <rect width="575" height="575" rx="287.5" fill="#FBF7F9"/>
  <path
    d="M287.7 349.02C280.38 349.02 273.84 348.24 268.08 346.68C262.44 345.24 257.52 343.14 253.32 340.38C249.12 337.5 245.58 334.08 242.7 330.12C239.94 326.04 237.84 321.48 236.4 316.44C235.08 311.4 234.42 305.88 234.42 299.88V227.7H260.52V298.98C260.52 305.1 261.48 310.2 263.4 314.28C265.44 318.24 268.44 321.18 272.4 323.1C276.36 325.02 281.4 325.98 287.52 325.98C293.76 325.98 298.86 325.02 302.82 323.1C306.9 321.18 309.9 318.24 311.82 314.28C313.86 310.2 314.88 305.1 314.88 298.98V227.7H340.62V299.88C340.62 315.48 336.18 327.6 327.3 336.24C318.54 344.76 305.34 349.02 287.7 349.02Z"
    fill="#5E0624"
  />
  <path
    d="M638.655 563.505C660.747 563.505 678.655 581.413 678.655 603.505V608.728H685.999C708.09 608.728 725.999 626.636 725.999 648.728V813.264C725.999 835.355 708.09 853.263 685.999 853.264H368.965C346.874 853.264 328.965 835.355 328.965 813.264V769.902H241.688C219.596 769.902 201.688 751.994 201.688 729.902V603.505C201.688 581.413 219.596 563.505 241.688 563.505H638.655Z"
    fill="url(#paint0)"
    opacity="0.55"
  />
  <path
    d="M215.396 -157.062C226.147 -157.062 235.907 -152.82 243.095 -145.918H318.001C340.092 -145.918 358.001 -128.009 358.001 -105.918V-17.5059C358.001 4.58546 340.092 22.494 318.001 22.4941H-110.211C-132.302 22.4941 -150.211 4.58553 -150.211 -17.5059V-105.918C-150.211 -128.009 -132.302 -145.918 -110.211 -145.918H-60.793C-53.6052 -152.82 -43.8454 -157.062 -33.0938 -157.062H215.396Z"
    fill="url(#paint1)"
    opacity="0.55"
  />
  <defs>
    <clipPath id="clip">
      <rect width="575" height="575" rx="287.5" fill="white"/>
    </clipPath>
    <linearGradient id="paint0" x1="463.843" y1="563.505" x2="463.843" y2="853.264" gradientUnits="userSpaceOnUse">
      <stop stop-color="#EADCE2"/>
      <stop offset="1" stop-color="#C299AC"/>
    </linearGradient>
    <linearGradient id="paint1" x1="107.454" y1="-157.063" x2="107.454" y2="42.4951" gradientUnits="userSpaceOnUse">
      <stop stop-color="#EADCE2"/>
      <stop offset="1" stop-color="#C299AC"/>
    </linearGradient>
  </defs>
</svg>
