<svg width="39" height="11" viewBox="0 0 39 11" fill="none" xmlns="http://www.w3.org/2000/svg">
<g opacity="0.3" clip-path="url(#clip0_602_8434)">
<path d="M0.25 9.06647C0.250003 8.92737 0.292199 8.79155 0.371017 8.67693C0.449834 8.56232 0.561565 8.4743 0.691451 8.42452C0.821338 8.37474 0.96327 8.36553 1.0985 8.3981C1.23373 8.43068 1.3559 8.50351 1.44888 8.60697C1.45542 8.61397 1.46334 8.61956 1.47213 8.62337C1.48093 8.62719 1.49041 8.62916 1.5 8.62916C1.50959 8.62916 1.51907 8.62719 1.52787 8.62337C1.53666 8.61956 1.54458 8.61397 1.55113 8.60697C1.64381 8.50283 1.766 8.42939 1.90145 8.39642C2.03691 8.36345 2.17919 8.37252 2.30936 8.42241C2.43953 8.4723 2.55142 8.56065 2.63014 8.67571C2.70886 8.79077 2.75066 8.92707 2.75 9.06647C2.75 9.35272 2.5625 9.56647 2.375 9.75397L1.6885 10.4181C1.66521 10.4448 1.63649 10.4663 1.60426 10.4811C1.57202 10.4959 1.53701 10.5037 1.50154 10.5039C1.46607 10.5042 1.43096 10.4968 1.39854 10.4824C1.36612 10.468 1.33713 10.4469 1.3135 10.4205L0.625 9.75397C0.4375 9.56647 0.25 9.35397 0.25 9.06647Z" fill="#FF001D"/>
</g>
<g opacity="0.3" clip-path="url(#clip1_602_8434)">
<path d="M26.5 2.74909C26.5 2.60999 26.5422 2.47416 26.621 2.35955C26.6998 2.24493 26.8116 2.15692 26.9415 2.10714C27.0713 2.05736 27.2133 2.04815 27.3485 2.08072C27.4837 2.11329 27.6059 2.18612 27.6989 2.28959C27.7054 2.29659 27.7133 2.30217 27.7221 2.30599C27.7309 2.30981 27.7404 2.31177 27.75 2.31177C27.7596 2.31177 27.7691 2.30981 27.7779 2.30599C27.7867 2.30217 27.7946 2.29659 27.8011 2.28959C27.8938 2.18545 28.016 2.11201 28.1515 2.07904C28.2869 2.04607 28.4292 2.05513 28.5594 2.10502C28.6895 2.15492 28.8014 2.24327 28.8801 2.35833C28.9589 2.47338 29.0007 2.60968 29 2.74909C29 3.03534 28.8125 3.24909 28.625 3.43659L27.9385 4.10071C27.9152 4.12747 27.8865 4.14895 27.8543 4.16375C27.822 4.17855 27.787 4.18632 27.7515 4.18654C27.7161 4.18677 27.681 4.17944 27.6485 4.16506C27.6161 4.15067 27.5871 4.12954 27.5635 4.10309L26.875 3.43659C26.6875 3.24909 26.5 3.03659 26.5 2.74909Z" fill="#FF001D"/>
</g>
<g opacity="0.3" clip-path="url(#clip2_602_8434)">
<path d="M9.65186 1.18757C9.65186 1.04847 9.69405 0.912639 9.77287 0.798024C9.85169 0.683409 9.96342 0.595398 10.0933 0.545616C10.2232 0.495834 10.3651 0.486622 10.5004 0.519197C10.6356 0.551772 10.7578 0.624601 10.8507 0.728066C10.8573 0.735068 10.8652 0.74065 10.874 0.744466C10.8828 0.748282 10.8923 0.750252 10.9019 0.750252C10.9114 0.750252 10.9209 0.748282 10.9297 0.744466C10.9385 0.74065 10.9464 0.735068 10.953 0.728066C11.0457 0.623929 11.1679 0.550487 11.3033 0.517516C11.4388 0.484545 11.581 0.493609 11.7112 0.543501C11.8414 0.593394 11.9533 0.681748 12.032 0.796804C12.1107 0.91186 12.1525 1.04816 12.1519 1.18757C12.1519 1.47382 11.9644 1.68757 11.7769 1.87507L11.0904 2.53919C11.0671 2.56594 11.0383 2.58743 11.0061 2.60223C10.9739 2.61703 10.9389 2.6248 10.9034 2.62502C10.8679 2.62525 10.8328 2.61792 10.8004 2.60353C10.768 2.58914 10.739 2.56802 10.7154 2.54157L10.0269 1.87507C9.83936 1.68757 9.65186 1.47507 9.65186 1.18757Z" fill="#FF001D"/>
</g>
<g opacity="0.3" clip-path="url(#clip3_602_8434)">
<path d="M35.75 8.06647C35.75 7.92737 35.7922 7.79155 35.871 7.67693C35.9498 7.56232 36.0616 7.4743 36.1915 7.42452C36.3213 7.37474 36.4633 7.36553 36.5985 7.3981C36.7337 7.43068 36.8559 7.50351 36.9489 7.60697C36.9554 7.61397 36.9633 7.61956 36.9721 7.62337C36.9809 7.62719 36.9904 7.62916 37 7.62916C37.0096 7.62916 37.0191 7.62719 37.0279 7.62337C37.0367 7.61956 37.0446 7.61397 37.0511 7.60697C37.1438 7.50283 37.266 7.42939 37.4015 7.39642C37.5369 7.36345 37.6792 7.37252 37.8094 7.42241C37.9395 7.4723 38.0514 7.56065 38.1301 7.67571C38.2089 7.79077 38.2507 7.92707 38.25 8.06647C38.25 8.35272 38.0625 8.56647 37.875 8.75397L37.1885 9.4181C37.1652 9.44485 37.1365 9.46634 37.1043 9.48113C37.072 9.49593 37.037 9.5037 37.0015 9.50393C36.9661 9.50415 36.931 9.49683 36.8985 9.48244C36.8661 9.46805 36.8371 9.44693 36.8135 9.42047L36.125 8.75397C35.9375 8.56647 35.75 8.35397 35.75 8.06647Z" fill="#FF001D"/>
</g>
<defs>
<clipPath id="clip0_602_8434">
<rect width="3" height="3" fill="white" transform="translate(0 7.87891)"/>
</clipPath>
<clipPath id="clip1_602_8434">
<rect width="3" height="3" fill="white" transform="translate(26.25 1.56152)"/>
</clipPath>
<clipPath id="clip2_602_8434">
<rect width="3" height="3" fill="white" transform="translate(9.40186)"/>
</clipPath>
<clipPath id="clip3_602_8434">
<rect width="3" height="3" fill="white" transform="translate(35.5 6.87891)"/>
</clipPath>
</defs>
</svg>
