<svg width="39" height="17" viewBox="0 0 39 17" fill="none" xmlns="http://www.w3.org/2000/svg">
<g opacity="0.3" filter="url(#filter0_f_580_7647)">
<g clip-path="url(#clip0_580_7647)">
<path d="M15.5 5.68952C15.5 5.55042 15.5422 5.41459 15.621 5.29998C15.6998 5.18536 15.8116 5.09735 15.9415 5.04757C16.0713 4.99779 16.2133 4.98857 16.3485 5.02115C16.4837 5.05372 16.6059 5.12655 16.6989 5.23002C16.7054 5.23702 16.7133 5.2426 16.7221 5.24642C16.7309 5.25024 16.7404 5.2522 16.75 5.2522C16.7596 5.2522 16.7691 5.25024 16.7779 5.24642C16.7867 5.2426 16.7946 5.23702 16.8011 5.23002C16.8938 5.12588 17.016 5.05244 17.1515 5.01947C17.2869 4.9865 17.4292 4.99556 17.5594 5.04545C17.6895 5.09535 17.8014 5.1837 17.8801 5.29876C17.9589 5.41381 18.0007 5.55011 18 5.68952C18 5.97577 17.8125 6.18952 17.625 6.37702L16.9385 7.04114C16.9152 7.06789 16.8865 7.08938 16.8543 7.10418C16.822 7.11898 16.787 7.12675 16.7515 7.12697C16.7161 7.1272 16.681 7.11987 16.6485 7.10548C16.6161 7.0911 16.5871 7.06997 16.5635 7.04352L15.875 6.37702C15.6875 6.18952 15.5 5.97702 15.5 5.68952Z" fill="#E35061"/>
</g>
</g>
<g opacity="0.3" filter="url(#filter1_f_580_7647)">
<g clip-path="url(#clip1_580_7647)">
<path d="M0.5 14.1895C0.500003 14.0504 0.542199 13.9146 0.621017 13.8C0.699834 13.6854 0.811565 13.5974 0.941451 13.5476C1.07134 13.4978 1.21327 13.4886 1.3485 13.5211C1.48373 13.5537 1.6059 13.6266 1.69888 13.73C1.70542 13.737 1.71334 13.7426 1.72213 13.7464C1.73093 13.7502 1.74041 13.7522 1.75 13.7522C1.75959 13.7522 1.76907 13.7502 1.77787 13.7464C1.78666 13.7426 1.79458 13.737 1.80113 13.73C1.89381 13.6259 2.016 13.5524 2.15145 13.5195C2.28691 13.4865 2.42919 13.4956 2.55936 13.5455C2.68953 13.5953 2.80142 13.6837 2.88014 13.7988C2.95886 13.9138 3.00066 14.0501 3 14.1895C3 14.4758 2.8125 14.6895 2.625 14.877L1.9385 15.5411C1.91521 15.5679 1.88649 15.5894 1.85426 15.6042C1.82202 15.619 1.78701 15.6267 1.75154 15.627C1.71607 15.6272 1.68096 15.6199 1.64854 15.6055C1.61612 15.5911 1.58713 15.57 1.5635 15.5435L0.875 14.877C0.6875 14.6895 0.5 14.477 0.5 14.1895Z" fill="#E35061"/>
</g>
</g>
<g opacity="0.3" filter="url(#filter2_f_580_7647)">
<g clip-path="url(#clip2_580_7647)">
<path d="M22 9.18952C22 9.05042 22.0422 8.91459 22.121 8.79998C22.1998 8.68536 22.3116 8.59735 22.4415 8.54757C22.5713 8.49779 22.7133 8.48857 22.8485 8.52115C22.9837 8.55372 23.1059 8.62655 23.1989 8.73002C23.2054 8.73702 23.2133 8.7426 23.2221 8.74642C23.2309 8.75024 23.2404 8.7522 23.25 8.7522C23.2596 8.7522 23.2691 8.75024 23.2779 8.74642C23.2867 8.7426 23.2946 8.73702 23.3011 8.73002C23.3938 8.62588 23.516 8.55244 23.6515 8.51947C23.7869 8.4865 23.9292 8.49556 24.0594 8.54545C24.1895 8.59535 24.3014 8.6837 24.3801 8.79876C24.4589 8.91381 24.5007 9.05011 24.5 9.18952C24.5 9.47577 24.3125 9.68952 24.125 9.87702L23.4385 10.5411C23.4152 10.5679 23.3865 10.5894 23.3543 10.6042C23.322 10.619 23.287 10.6267 23.2515 10.627C23.2161 10.6272 23.181 10.6199 23.1485 10.6055C23.1161 10.5911 23.0871 10.57 23.0635 10.5435L22.375 9.87702C22.1875 9.68952 22 9.47702 22 9.18952Z" fill="#E35061"/>
</g>
</g>
<g opacity="0.3" filter="url(#filter3_f_580_7647)">
<g clip-path="url(#clip3_580_7647)">
<path d="M28 4.18952C28 4.05042 28.0422 3.91459 28.121 3.79998C28.1998 3.68536 28.3116 3.59735 28.4415 3.54757C28.5713 3.49779 28.7133 3.48857 28.8485 3.52115C28.9837 3.55372 29.1059 3.62655 29.1989 3.73002C29.2054 3.73702 29.2133 3.7426 29.2221 3.74642C29.2309 3.75024 29.2404 3.7522 29.25 3.7522C29.2596 3.7522 29.2691 3.75024 29.2779 3.74642C29.2867 3.7426 29.2946 3.73702 29.3011 3.73002C29.3938 3.62588 29.516 3.55244 29.6515 3.51947C29.7869 3.4865 29.9292 3.49556 30.0594 3.54545C30.1895 3.59535 30.3014 3.6837 30.3801 3.79876C30.4589 3.91381 30.5007 4.05011 30.5 4.18952C30.5 4.47577 30.3125 4.68952 30.125 4.87702L29.4385 5.54114C29.4152 5.56789 29.3865 5.58938 29.3543 5.60418C29.322 5.61898 29.287 5.62675 29.2515 5.62697C29.2161 5.6272 29.181 5.61987 29.1485 5.60548C29.1161 5.5911 29.0871 5.56997 29.0635 5.54352L28.375 4.87702C28.1875 4.68952 28 4.47702 28 4.18952Z" fill="#E35061"/>
</g>
</g>
<g opacity="0.3" filter="url(#filter4_f_580_7647)">
<g clip-path="url(#clip4_580_7647)">
<path d="M6 8.18952C6 8.05042 6.0422 7.91459 6.12102 7.79998C6.19983 7.68536 6.31156 7.59735 6.44145 7.54757C6.57134 7.49779 6.71327 7.48857 6.8485 7.52115C6.98373 7.55372 7.1059 7.62655 7.19888 7.73002C7.20542 7.73702 7.21334 7.7426 7.22213 7.74642C7.23093 7.75024 7.24041 7.7522 7.25 7.7522C7.25959 7.7522 7.26907 7.75024 7.27787 7.74642C7.28666 7.7426 7.29458 7.73702 7.30113 7.73002C7.39381 7.62588 7.516 7.55244 7.65145 7.51947C7.78691 7.4865 7.92919 7.49556 8.05936 7.54545C8.18953 7.59535 8.30142 7.6837 8.38014 7.79876C8.45886 7.91381 8.50066 8.05011 8.5 8.18952C8.5 8.47577 8.3125 8.68952 8.125 8.87702L7.4385 9.54114C7.41521 9.56789 7.38649 9.58938 7.35426 9.60418C7.32202 9.61898 7.28701 9.62675 7.25154 9.62697C7.21607 9.6272 7.18096 9.61987 7.14854 9.60548C7.11612 9.5911 7.08713 9.56997 7.0635 9.54352L6.375 8.87702C6.1875 8.68952 6 8.47702 6 8.18952Z" fill="#E35061"/>
</g>
</g>
<g opacity="0.3" filter="url(#filter5_f_580_7647)">
<g clip-path="url(#clip5_580_7647)">
<path d="M8 1.18952C8 1.05042 8.0422 0.914592 8.12102 0.799977C8.19983 0.685362 8.31156 0.597351 8.44145 0.547569C8.57134 0.497787 8.71327 0.488575 8.8485 0.52115C8.98373 0.553725 9.1059 0.626554 9.19888 0.730019C9.20542 0.737021 9.21334 0.742603 9.22213 0.746419C9.23093 0.750235 9.24041 0.752205 9.25 0.752205C9.25959 0.752205 9.26907 0.750235 9.27787 0.746419C9.28666 0.742603 9.29458 0.737021 9.30113 0.730019C9.39381 0.625882 9.516 0.55244 9.65145 0.519469C9.78691 0.486499 9.92919 0.495562 10.0594 0.545455C10.1895 0.595347 10.3014 0.683701 10.3801 0.798757C10.4589 0.913813 10.5007 1.05011 10.5 1.18952C10.5 1.47577 10.3125 1.68952 10.125 1.87702L9.4385 2.54114C9.41521 2.56789 9.38649 2.58938 9.35426 2.60418C9.32202 2.61898 9.28701 2.62675 9.25154 2.62697C9.21607 2.6272 9.18096 2.61987 9.14854 2.60548C9.11612 2.5911 9.08713 2.56997 9.0635 2.54352L8.375 1.87702C8.1875 1.68952 8 1.47702 8 1.18952Z" fill="#E35061"/>
</g>
</g>
<g opacity="0.3" filter="url(#filter6_f_580_7647)">
<g clip-path="url(#clip6_580_7647)">
<path d="M36 13.1895C36 13.0504 36.0422 12.9146 36.121 12.8C36.1998 12.6854 36.3116 12.5974 36.4415 12.5476C36.5713 12.4978 36.7133 12.4886 36.8485 12.5211C36.9837 12.5537 37.1059 12.6266 37.1989 12.73C37.2054 12.737 37.2133 12.7426 37.2221 12.7464C37.2309 12.7502 37.2404 12.7522 37.25 12.7522C37.2596 12.7522 37.2691 12.7502 37.2779 12.7464C37.2867 12.7426 37.2946 12.737 37.3011 12.73C37.3938 12.6259 37.516 12.5524 37.6515 12.5195C37.7869 12.4865 37.9292 12.4956 38.0594 12.5455C38.1895 12.5953 38.3014 12.6837 38.3801 12.7988C38.4589 12.9138 38.5007 13.0501 38.5 13.1895C38.5 13.4758 38.3125 13.6895 38.125 13.877L37.4385 14.5411C37.4152 14.5679 37.3865 14.5894 37.3543 14.6042C37.322 14.619 37.287 14.6267 37.2515 14.627C37.2161 14.6272 37.181 14.6199 37.1485 14.6055C37.1161 14.5911 37.0871 14.57 37.0635 14.5435L36.375 13.877C36.1875 13.6895 36 13.477 36 13.1895Z" fill="#E35061"/>
</g>
</g>
<defs>
<filter id="filter0_f_580_7647" x="14.75" y="4.00195" width="4" height="4" filterUnits="userSpaceOnUse" color-interpolation-filters="sRGB">
<feFlood flood-opacity="0" result="BackgroundImageFix"/>
<feBlend mode="normal" in="SourceGraphic" in2="BackgroundImageFix" result="shape"/>
<feGaussianBlur stdDeviation="0.25" result="effect1_foregroundBlur_580_7647"/>
</filter>
<filter id="filter1_f_580_7647" x="-0.25" y="12.502" width="4" height="4" filterUnits="userSpaceOnUse" color-interpolation-filters="sRGB">
<feFlood flood-opacity="0" result="BackgroundImageFix"/>
<feBlend mode="normal" in="SourceGraphic" in2="BackgroundImageFix" result="shape"/>
<feGaussianBlur stdDeviation="0.25" result="effect1_foregroundBlur_580_7647"/>
</filter>
<filter id="filter2_f_580_7647" x="21.25" y="7.50195" width="4" height="4" filterUnits="userSpaceOnUse" color-interpolation-filters="sRGB">
<feFlood flood-opacity="0" result="BackgroundImageFix"/>
<feBlend mode="normal" in="SourceGraphic" in2="BackgroundImageFix" result="shape"/>
<feGaussianBlur stdDeviation="0.25" result="effect1_foregroundBlur_580_7647"/>
</filter>
<filter id="filter3_f_580_7647" x="27.25" y="2.50195" width="4" height="4" filterUnits="userSpaceOnUse" color-interpolation-filters="sRGB">
<feFlood flood-opacity="0" result="BackgroundImageFix"/>
<feBlend mode="normal" in="SourceGraphic" in2="BackgroundImageFix" result="shape"/>
<feGaussianBlur stdDeviation="0.25" result="effect1_foregroundBlur_580_7647"/>
</filter>
<filter id="filter4_f_580_7647" x="5.25" y="6.50195" width="4" height="4" filterUnits="userSpaceOnUse" color-interpolation-filters="sRGB">
<feFlood flood-opacity="0" result="BackgroundImageFix"/>
<feBlend mode="normal" in="SourceGraphic" in2="BackgroundImageFix" result="shape"/>
<feGaussianBlur stdDeviation="0.25" result="effect1_foregroundBlur_580_7647"/>
</filter>
<filter id="filter5_f_580_7647" x="7.25" y="-0.498047" width="4" height="4" filterUnits="userSpaceOnUse" color-interpolation-filters="sRGB">
<feFlood flood-opacity="0" result="BackgroundImageFix"/>
<feBlend mode="normal" in="SourceGraphic" in2="BackgroundImageFix" result="shape"/>
<feGaussianBlur stdDeviation="0.25" result="effect1_foregroundBlur_580_7647"/>
</filter>
<filter id="filter6_f_580_7647" x="35.25" y="11.502" width="4" height="4" filterUnits="userSpaceOnUse" color-interpolation-filters="sRGB">
<feFlood flood-opacity="0" result="BackgroundImageFix"/>
<feBlend mode="normal" in="SourceGraphic" in2="BackgroundImageFix" result="shape"/>
<feGaussianBlur stdDeviation="0.25" result="effect1_foregroundBlur_580_7647"/>
</filter>
<clipPath id="clip0_580_7647">
<rect width="3" height="3" fill="white" transform="translate(15.25 4.50195)"/>
</clipPath>
<clipPath id="clip1_580_7647">
<rect width="3" height="3" fill="white" transform="translate(0.25 13.002)"/>
</clipPath>
<clipPath id="clip2_580_7647">
<rect width="3" height="3" fill="white" transform="translate(21.75 8.00195)"/>
</clipPath>
<clipPath id="clip3_580_7647">
<rect width="3" height="3" fill="white" transform="translate(27.75 3.00195)"/>
</clipPath>
<clipPath id="clip4_580_7647">
<rect width="3" height="3" fill="white" transform="translate(5.75 7.00195)"/>
</clipPath>
<clipPath id="clip5_580_7647">
<rect width="3" height="3" fill="white" transform="translate(7.75 0.00195312)"/>
</clipPath>
<clipPath id="clip6_580_7647">
<rect width="3" height="3" fill="white" transform="translate(35.75 12.002)"/>
</clipPath>
</defs>
</svg>
