<svg width="5" height="8" viewBox="0 0 5 8" fill="none" xmlns="http://www.w3.org/2000/svg">
<path d="M0.56 6.888C0.458667 6.90133 0.382667 6.91067 0.332 6.916C0.281333 6.91867 0.242667 6.91467 0.216 6.904C0.192 6.89333 0.165333 6.87467 0.136 6.848C0.112 6.82667 0.102667 6.80133 0.108 6.772C0.116 6.74267 0.161333 6.68533 0.244 6.6C0.294667 6.53867 0.346667 6.48133 0.4 6.428C0.453333 6.372 0.501333 6.32667 0.544 6.292C0.562667 6.276 0.584 6.26 0.608 6.244C0.632 6.22533 0.670667 6.19733 0.724 6.16C0.777333 6.12267 0.856 6.06933 0.96 6C1.01067 5.96 1.05067 5.92933 1.08 5.908C1.10933 5.88667 1.13333 5.86933 1.152 5.856C1.17333 5.84 1.19467 5.824 1.216 5.808C1.19733 5.80533 1.156 5.80133 1.092 5.796C1.03067 5.79067 0.973333 5.79067 0.92 5.796C0.845333 5.796 0.797333 5.796 0.776 5.796C0.754667 5.79333 0.733333 5.78933 0.712 5.784H0.652C0.638667 5.784 0.614667 5.77867 0.58 5.768C0.545333 5.75467 0.513333 5.73867 0.484 5.72C0.454667 5.70133 0.438667 5.68267 0.436 5.664C0.436 5.664 0.444 5.66 0.46 5.652C0.476 5.64133 0.489333 5.63067 0.5 5.62C0.521333 5.60667 0.537333 5.596 0.548 5.588C0.561333 5.58 0.573333 5.58133 0.584 5.592C0.584 5.592 0.609333 5.592 0.66 5.592C0.710667 5.58933 0.768 5.58667 0.832 5.584C0.986667 5.58667 1.1 5.592 1.172 5.6C1.24667 5.60533 1.30133 5.616 1.336 5.632C1.37333 5.648 1.40933 5.672 1.444 5.704C1.48667 5.74667 1.504 5.788 1.496 5.828C1.488 5.868 1.46933 5.904 1.44 5.936C1.42933 5.94667 1.41867 5.95867 1.408 5.972C1.4 5.98267 1.392 5.988 1.384 5.988C1.384 5.988 1.36533 6 1.328 6.024C1.29067 6.048 1.24533 6.07733 1.192 6.112C1.14133 6.14667 1.09067 6.17867 1.04 6.208C0.992 6.23733 0.962667 6.25867 0.952 6.272C0.933333 6.28267 0.910667 6.29733 0.884 6.316C0.857333 6.332 0.838667 6.34533 0.828 6.356C0.82 6.36667 0.801333 6.38533 0.772 6.412C0.745333 6.43867 0.716 6.46267 0.684 6.484C0.66 6.50533 0.630667 6.532 0.596 6.564C0.564 6.596 0.536 6.624 0.512 6.648C0.488 6.672 0.476 6.684 0.476 6.684C0.476 6.684 0.502667 6.68133 0.556 6.676C0.609333 6.668 0.676 6.66133 0.756 6.656C0.836 6.648 0.914667 6.64667 0.992 6.652C1.11733 6.64933 1.216 6.64667 1.288 6.644C1.36267 6.63867 1.41867 6.63733 1.456 6.64C1.496 6.64 1.52667 6.64533 1.548 6.656C1.56667 6.66133 1.58267 6.672 1.596 6.688C1.612 6.704 1.62267 6.72133 1.628 6.74C1.636 6.756 1.63733 6.768 1.632 6.776C1.62133 6.776 1.58 6.78 1.508 6.788C1.436 6.79333 1.35333 6.79867 1.26 6.804C1.13733 6.81467 1.01867 6.828 0.904 6.844C0.789333 6.86 0.674667 6.87467 0.56 6.888Z" fill="#A76F41"/>
<path d="M3.32172 4.90167C3.22039 4.91501 3.14439 4.92434 3.09372 4.92967C3.04305 4.93234 3.00439 4.92834 2.97772 4.91767C2.95372 4.90701 2.92705 4.88834 2.89772 4.86167C2.87372 4.84034 2.86439 4.81501 2.86972 4.78567C2.87772 4.75634 2.92305 4.69901 3.00572 4.61367C3.05639 4.55234 3.10839 4.49501 3.16172 4.44167C3.21505 4.38567 3.26305 4.34034 3.30572 4.30567C3.32439 4.28967 3.34572 4.27367 3.36972 4.25767C3.39372 4.23901 3.43239 4.21101 3.48572 4.17367C3.53905 4.13634 3.61772 4.08301 3.72172 4.01367C3.77239 3.97367 3.81239 3.94301 3.84172 3.92167C3.87105 3.90034 3.89505 3.88301 3.91372 3.86967C3.93505 3.85367 3.95639 3.83767 3.97772 3.82167C3.95905 3.81901 3.91772 3.81501 3.85372 3.80967C3.79239 3.80434 3.73505 3.80434 3.68172 3.80967C3.60705 3.80967 3.55905 3.80967 3.53772 3.80967C3.51639 3.80701 3.49505 3.80301 3.47372 3.79767H3.41372C3.40039 3.79767 3.37639 3.79234 3.34172 3.78167C3.30705 3.76834 3.27505 3.75234 3.24572 3.73367C3.21639 3.71501 3.20039 3.69634 3.19772 3.67767C3.19772 3.67767 3.20572 3.67367 3.22172 3.66567C3.23772 3.65501 3.25105 3.64434 3.26172 3.63367C3.28305 3.62034 3.29905 3.60967 3.30972 3.60167C3.32305 3.59367 3.33505 3.59501 3.34572 3.60567C3.34572 3.60567 3.37105 3.60567 3.42172 3.60567C3.47239 3.60301 3.52972 3.60034 3.59372 3.59767C3.74839 3.60034 3.86172 3.60567 3.93372 3.61367C4.00839 3.61901 4.06305 3.62967 4.09772 3.64567C4.13505 3.66167 4.17105 3.68567 4.20572 3.71767C4.24839 3.76034 4.26572 3.80167 4.25772 3.84167C4.24972 3.88167 4.23105 3.91767 4.20172 3.94967C4.19105 3.96034 4.18039 3.97234 4.16972 3.98567C4.16172 3.99634 4.15372 4.00167 4.14572 4.00167C4.14572 4.00167 4.12705 4.01367 4.08972 4.03767C4.05239 4.06167 4.00705 4.09101 3.95372 4.12567C3.90305 4.16034 3.85239 4.19234 3.80172 4.22167C3.75372 4.25101 3.72439 4.27234 3.71372 4.28567C3.69505 4.29634 3.67239 4.31101 3.64572 4.32967C3.61905 4.34567 3.60039 4.35901 3.58972 4.36967C3.58172 4.38034 3.56305 4.39901 3.53372 4.42567C3.50705 4.45234 3.47772 4.47634 3.44572 4.49767C3.42172 4.51901 3.39239 4.54567 3.35772 4.57767C3.32572 4.60967 3.29772 4.63767 3.27372 4.66167C3.24972 4.68567 3.23772 4.69767 3.23772 4.69767C3.23772 4.69767 3.26439 4.69501 3.31772 4.68967C3.37105 4.68167 3.43772 4.67501 3.51772 4.66967C3.59772 4.66167 3.67639 4.66034 3.75372 4.66567C3.87905 4.66301 3.97772 4.66034 4.04972 4.65767C4.12439 4.65234 4.18039 4.65101 4.21772 4.65367C4.25772 4.65367 4.28839 4.65901 4.30972 4.66967C4.32839 4.67501 4.34439 4.68567 4.35772 4.70167C4.37372 4.71767 4.38439 4.73501 4.38972 4.75367C4.39772 4.76967 4.39905 4.78167 4.39372 4.78967C4.38305 4.78967 4.34172 4.79367 4.26972 4.80167C4.19772 4.80701 4.11505 4.81234 4.02172 4.81767C3.89905 4.82834 3.78039 4.84167 3.66572 4.85767C3.55105 4.87367 3.43639 4.88834 3.32172 4.90167Z" fill="#A76F41"/>
<path d="M1.42 2.916C1.344 2.926 1.287 2.933 1.249 2.937C1.211 2.939 1.182 2.936 1.162 2.928C1.144 2.92 1.124 2.906 1.102 2.886C1.084 2.87 1.077 2.851 1.081 2.829C1.087 2.807 1.121 2.764 1.183 2.7C1.221 2.654 1.26 2.611 1.3 2.571C1.34 2.529 1.376 2.495 1.408 2.469C1.422 2.457 1.438 2.445 1.456 2.433C1.474 2.419 1.503 2.398 1.543 2.37C1.583 2.342 1.642 2.302 1.72 2.25C1.758 2.22 1.788 2.197 1.81 2.181C1.832 2.165 1.85 2.152 1.864 2.142C1.88 2.13 1.896 2.118 1.912 2.106C1.898 2.104 1.867 2.101 1.819 2.097C1.773 2.093 1.73 2.093 1.69 2.097C1.634 2.097 1.598 2.097 1.582 2.097C1.566 2.095 1.55 2.092 1.534 2.088H1.489C1.479 2.088 1.461 2.084 1.435 2.076C1.409 2.066 1.385 2.054 1.363 2.04C1.341 2.026 1.329 2.012 1.327 1.998C1.327 1.998 1.333 1.995 1.345 1.989C1.357 1.981 1.367 1.973 1.375 1.965C1.391 1.955 1.403 1.947 1.411 1.941C1.421 1.935 1.43 1.936 1.438 1.944C1.438 1.944 1.457 1.944 1.495 1.944C1.533 1.942 1.576 1.94 1.624 1.938C1.74 1.94 1.825 1.944 1.879 1.95C1.935 1.954 1.976 1.962 2.002 1.974C2.03 1.986 2.057 2.004 2.083 2.028C2.115 2.06 2.128 2.091 2.122 2.121C2.116 2.151 2.102 2.178 2.08 2.202C2.072 2.21 2.064 2.219 2.056 2.229C2.05 2.237 2.044 2.241 2.038 2.241C2.038 2.241 2.024 2.25 1.996 2.268C1.968 2.286 1.934 2.308 1.894 2.334C1.856 2.36 1.818 2.384 1.78 2.406C1.744 2.428 1.722 2.444 1.714 2.454C1.7 2.462 1.683 2.473 1.663 2.487C1.643 2.499 1.629 2.509 1.621 2.517C1.615 2.525 1.601 2.539 1.579 2.559C1.559 2.579 1.537 2.597 1.513 2.613C1.495 2.629 1.473 2.649 1.447 2.673C1.423 2.697 1.402 2.718 1.384 2.736C1.366 2.754 1.357 2.763 1.357 2.763C1.357 2.763 1.377 2.761 1.417 2.757C1.457 2.751 1.507 2.746 1.567 2.742C1.627 2.736 1.686 2.735 1.744 2.739C1.838 2.737 1.912 2.735 1.966 2.733C2.022 2.729 2.064 2.728 2.092 2.73C2.122 2.73 2.145 2.734 2.161 2.742C2.175 2.746 2.187 2.754 2.197 2.766C2.209 2.778 2.217 2.791 2.221 2.805C2.227 2.817 2.228 2.826 2.224 2.832C2.216 2.832 2.185 2.835 2.131 2.841C2.077 2.845 2.015 2.849 1.945 2.853C1.853 2.861 1.764 2.871 1.678 2.883C1.592 2.895 1.506 2.906 1.42 2.916Z" fill="#A76F41"/>
</svg>
