<svg width="50" height="50" viewBox="0 0 50 50" fill="none" xmlns="http://www.w3.org/2000/svg">
<path d="M22.0967 1.85021C23.8619 0.0614551 26.6165 -0.543837 29.0479 0.538686C30.1415 1.02563 31.0245 1.78988 31.6524 2.71154C33.9976 1.78197 36.7735 2.34602 38.5606 4.33068C39.3616 5.22033 39.857 6.27823 40.0557 7.3756C42.5766 7.47992 44.8836 9.12542 45.709 11.6656C46.0789 12.8042 46.1008 13.972 45.836 15.0553C48.0965 16.176 49.5351 18.6167 49.2559 21.2731C49.1307 22.4642 48.6753 23.5403 47.9922 24.4225C49.6012 26.3657 49.9223 29.1798 48.5869 31.4928C47.9882 32.5297 47.1349 33.3271 46.1524 33.8551C46.8324 36.285 45.9814 38.9872 43.8203 40.5572C42.8517 41.2609 41.748 41.6424 40.6358 41.7252C40.2685 44.2213 38.3927 46.3436 35.7803 46.899C34.6085 47.1481 33.4438 47.0477 32.3936 46.6705C31.0427 48.8014 28.4661 49.9768 25.8535 49.4215C24.6821 49.1725 23.6594 48.608 22.8535 47.8365C20.7528 49.2337 17.9206 49.2599 15.7598 47.6901C14.7907 46.986 14.0855 46.0539 13.6631 45.0211C11.176 45.4425 8.57841 44.3142 7.24319 42.0016C6.64452 40.9645 6.38006 39.8265 6.41408 38.7115C3.97027 38.0851 2.05654 35.9975 1.77736 33.3414C1.65216 32.1502 1.87264 31.0026 2.35744 29.9977C0.379812 28.4314 -0.519589 25.7456 0.305685 23.2057C0.675551 22.0675 1.34274 21.109 2.19338 20.3883C1.02407 18.1531 1.29615 15.3338 3.08303 13.3492C3.8843 12.4593 4.88419 11.8548 5.9551 11.5426C5.79613 9.02527 7.19057 6.56042 9.6299 5.47423C10.715 4.99113 11.8647 4.84357 12.9619 4.9879C13.8352 2.60718 16.1223 0.908812 18.8057 0.908803C20.0143 0.908803 21.142 1.25393 22.0967 1.85021Z" fill="url(#paint0_radial_566_1097)"/>
<defs>
<radialGradient id="paint0_radial_566_1097" cx="0" cy="0" r="1" gradientUnits="userSpaceOnUse" gradientTransform="translate(24.7101 24.7793) rotate(90) scale(38.1454 38.0389)">
<stop stop-color="#F7B235"/>
<stop offset="0.432692" stop-color="#F7B235"/>
<stop offset="0.8125" stop-color="#E35061"/>
</radialGradient>
</defs>
</svg>
